<svg height="16" viewBox="0 0 16 16" width="16" xmlns="http://www.w3.org/2000/svg"><path d="m9.40149294 15.0021328v-4.7987204c0-.88296452.71660886-1.59957342 1.59957346-1.59957342.3156491 0 .6057051.09384164.8531058.25166622-.1791522.34124233-.2857904.7166089-.2857904 1.11330312 0 .63982938.2516662 1.24553448.7038123 1.69768058l.5673154.5630499 3.3910957-3.39109572-.5673154-.56731538c-.6824847-.68248467-1.7446015-.84884031-2.6147694-.50759797-.5545188-.46920822-1.2668622-.76352973-2.047454-.76352973-1.7659291 0-3.19914691 1.43321781-3.19914691 3.1991469v4.8029859h-.80191949v3.1991469c0 1.9322847 1.37776593 3.5446547 3.1991469 3.9200213v.878699h1.5995734v-.8019195h6.3982938v.8019195h1.5995735v-.878699c1.8213809-.3711011 3.1991469-1.9877366 3.1991469-3.9200213v-3.1991469zm11.99466806 3.1991469c0 1.322314-1.0749133 2.4014929-2.4014929 2.4014929h-7.9936017c-1.32231407 0-2.40149295-1.0749134-2.40149295-2.4014929v-1.5995735h12.79658755z" fill="#7c7c7c" transform="translate(-7 -7)"/></svg>